<svg width="96" height="71" viewBox="0 0 96 71" fill="none" xmlns="http://www.w3.org/2000/svg">
<path d="M45.7509 0.657883L23.0592 70.4473H0L11.8537 34.0019C11.8623 33.9902 11.8661 33.976 11.8646 33.9618L22.6918 0.657883H45.7509Z" fill="url(#paint0_linear_3_95)"/>
<path d="M72.2247 0.657883L49.5329 70.4473H26.4737L38.0898 34.7213L49.1655 0.657883H72.2247Z" fill="url(#paint1_linear_3_95)"/>
<path d="M95.1863 70.4474H72.138L68.0427 57.8646V57.8545L62.4562 40.6739L73.9858 5.22495L95.1863 70.4474Z" fill="url(#paint2_linear_3_95)"/>
<g style="mix-blend-mode:screen" opacity="0.4">
<path d="M42.8226 2.71054L2.92828 68.3948L24.291 2.71054H42.8226Z" fill="white"/>
</g>
<g style="mix-blend-mode:screen" opacity="0.4">
<path d="M69.2963 2.71054L29.402 68.3948L50.7647 2.71054H69.2963Z" fill="white"/>
</g>
<g style="mix-blend-mode:multiply" opacity="0.3">
<path d="M73.9859 5.22495L68.0428 57.8596L62.4541 40.6739L73.9859 5.22495Z" fill="black"/>
</g>
<g style="mix-blend-mode:multiply" opacity="0.3">
<path d="M72.2247 0.657883L49.5329 70.4473H26.4737C30.3205 70.2318 34.1565 70.1395 38.0033 69.9752L43.7627 69.811L48.917 69.6971C50.6243 64.0216 52.3856 58.3566 54.2009 52.7024L57.0104 43.9787L59.8847 35.2652C61.8405 29.4666 63.8179 23.6781 65.8602 17.9C66.8975 15.0263 67.9132 12.1321 68.983 9.26867C70.0527 6.40525 71.1009 3.51001 72.2247 0.657883Z" fill="black"/>
</g>
<g style="mix-blend-mode:multiply" opacity="0.3">
<path d="M45.7509 0.657883L23.0592 70.4473H0C3.8468 70.2318 7.68278 70.1395 11.5296 69.9752L17.289 69.811L22.4432 69.6971C24.1505 64.0216 25.9118 58.3566 27.7272 52.7024L30.5366 43.9787L33.4109 35.2652C35.3667 29.4666 37.3442 23.6781 39.3864 17.9C40.4238 15.0263 41.4395 12.1321 42.5092 9.26867C43.579 6.40525 44.6271 3.51001 45.7509 0.657883Z" fill="black"/>
</g>
<g style="mix-blend-mode:multiply" opacity="0.3">
<path d="M39.441 0.657883C36.6531 0.933962 33.8653 1.10946 31.0667 1.24288C29.6727 1.31472 28.2788 1.38657 26.8849 1.42762C25.7287 1.46867 24.5725 1.50972 23.4163 1.53025C23.0597 2.73104 22.7031 3.92259 22.3357 5.12236L21.0066 9.30049C20.5744 10.685 20.0882 12.0715 19.6343 13.4571C19.1805 14.8426 18.705 16.2281 18.2188 17.6034C17.7325 18.9786 17.2571 20.3744 16.7384 21.7394C16.2198 23.1044 15.7335 24.49 15.204 25.855C14.1559 28.585 13.0645 31.2842 11.8651 33.9629L22.6923 0.658908L39.441 0.657883Z" fill="black"/>
</g>
<g style="mix-blend-mode:multiply" opacity="0.3">
<path d="M66.2816 0.657883C63.4289 0.933962 60.5762 1.10946 57.7235 1.24288C56.2972 1.32362 54.8709 1.3852 53.4445 1.42762C52.2559 1.46867 51.0781 1.50972 49.8895 1.53949L48.7765 5.20446L47.4258 9.47394L46.0211 13.7219C45.5564 15.1495 45.0702 16.5545 44.5731 17.9605C44.0761 19.3666 43.5898 20.7829 43.0603 22.189C42.5309 23.595 42.0446 25.0021 41.4935 26.3876C40.4346 29.1895 39.3108 31.9708 38.0898 34.7213L49.1655 0.657883H66.2816Z" fill="black"/>
</g>
<g style="mix-blend-mode:multiply" opacity="0.3">
<path d="M83.6568 69.9639C87.1254 69.852 90.5832 69.7587 94.0517 69.6879C93.2197 67.3171 92.4093 64.9462 91.5989 62.5653C90.6696 59.8659 89.7619 57.1562 88.8759 54.4358C87.0713 49.0179 85.3316 43.5682 83.6027 38.1287L81.0634 29.9376L78.5997 21.727C77.8001 18.9868 76.9897 16.2476 76.2441 13.4971C75.4769 10.7363 74.6881 7.99497 73.9857 5.22495L95.1863 70.4474H72.138C75.974 70.2153 79.8208 70.1189 83.6568 69.9639Z" fill="black"/>
</g>
<defs>
<linearGradient id="paint0_linear_3_95" x1="22.8755" y1="1.42557" x2="22.8755" y2="71.3546" gradientUnits="userSpaceOnUse">
<stop stop-color="#00F3FF"/>
<stop offset="0.238" stop-color="#00EFFC"/>
<stop offset="0.44" stop-color="#00E5F4"/>
<stop offset="0.629" stop-color="#00D3E7"/>
<stop offset="0.81" stop-color="#00BAD4"/>
<stop offset="0.983" stop-color="#009BBC"/>
<stop offset="1" stop-color="#0098BA"/>
</linearGradient>
<linearGradient id="paint1_linear_3_95" x1="49.3492" y1="1.42557" x2="49.3492" y2="71.3546" gradientUnits="userSpaceOnUse">
<stop stop-color="#00F3FF"/>
<stop offset="0.238" stop-color="#00EFFC"/>
<stop offset="0.44" stop-color="#00E5F4"/>
<stop offset="0.629" stop-color="#00D3E7"/>
<stop offset="0.81" stop-color="#00BAD4"/>
<stop offset="0.983" stop-color="#009BBC"/>
<stop offset="1" stop-color="#0098BA"/>
</linearGradient>
<linearGradient id="paint2_linear_3_95" x1="86.5783" y1="71.2952" x2="52.9468" y2="50.3267" gradientUnits="userSpaceOnUse">
<stop stop-color="#3E6896"/>
<stop offset="0.247" stop-color="#355881"/>
<stop offset="0.75" stop-color="#1F324E"/>
<stop offset="1" stop-color="#131D32"/>
</linearGradient>
</defs>
<style type="text/css">
	.st0{fill:#FFFFFF;}
	.st1{fill:none;stroke:#FFFFFF;stroke-width:16;stroke-miterlimit:10;}
</style>
<circle class="st0" cx="262" cy="250" r="108"/>
<circle class="st0" cx="404.8" cy="104" r="40.3"/>
<circle class="st0" cx="60.8" cy="289.5" r="24.9"/>
<circle class="st1" cx="262" cy="250" r="204.4"/>
</svg>


